<svg xmlns="http://www.w3.org/2000/svg" xmlns:xlink="http://www.w3.org/1999/xlink" width="1080" zoomAndPan="magnify" viewBox="0 0 810 809.999993" height="1080" preserveAspectRatio="xMidYMid meet" version="1.0"><defs><clipPath id="2ddaad8f6c"><path d="M 172.898438 81 L 637 81 L 637 719 L 172.898438 719 Z M 172.898438 81 " clip-rule="nonzero"/></clipPath></defs><rect x="-81" width="972" fill="" y="-80.999999" height="971.999992" fill-opacity="0"/><rect x="-81" width="972" fill="" y="-80.999999" height="971.999992" fill-opacity="0"/><g clip-path="url(#2ddaad8f6c)"><path  fill="#1f77b4" d="M 404.667969 482.507812 C 311.464844 482.507812 235.941406 406.929688 235.941406 313.722656 C 235.941406 220.578125 311.464844 144.996094 404.667969 144.996094 C 497.871094 144.996094 573.453125 220.578125 573.453125 313.722656 C 573.453125 406.929688 497.871094 482.507812 404.667969 482.507812 Z M 404.667969 81.898438 C 276.667969 81.898438 172.898438 185.667969 172.898438 313.667969 C 172.898438 414.214844 236.957031 499.792969 326.433594 531.878906 L 404.667969 718.175781 L 482.902344 531.878906 C 572.4375 499.792969 636.4375 414.214844 636.4375 313.667969 C 636.4375 185.667969 532.667969 81.898438 404.667969 81.898438 " fill-opacity="1" fill-rule="nonzero"/></g></svg>