<?xml version="1.0"?>
<svg width="123.547" height="123.539" xmlns="http://www.w3.org/2000/svg" xmlns:svg="http://www.w3.org/2000/svg" xmlns:xlink="http://www.w3.org/1999/xlink" enable-background="new -0.258 -0.548 123.547 123.539" version="1.1" xml:space="preserve">
 <metadata>image/svg+xmlOpenclipartNPS map pictographs part 952006-12-26T00:00:00https://openclipart.org/detail/11401/-by--11401johnny_automatic</metadata>
 <defs>
  <symbol enable-background="new 0 0 1642 1642" height="123.55" id="svg_25" version="1.1" width="123.55" xml:space="preserve" xmlns="http://www.w3.org/2000/svg" xmlns:svg="http://www.w3.org/2000/svg">
   <g class="layer">
    <title>Layer 1</title>
    <g id="svg_8">
     <g id="svg_23">
      <path 
        style="fill:#F30012"
        d="m61.82,61.44l-33.31,41.96c-2.62,2.88 -7.22,2.95 -9.88,0.28c-2.62,-2.63 -2.49,-7.05 0.4,-9.58c14.26,-10.89 28.53,-21.77 42.79,-32.66z" id="svg_24"/>
     </g>
     <g id="svg_21">
      <path 
        style="fill:#F30012"
        d="m61.82,61.44l-53.81,6.57c-3.93,0.22 -7.23,-2.91 -7.19,-6.65c0.04,-3.68 3.32,-6.71 7.19,-6.5c17.94,2.19 35.87,4.38 53.81,6.57l0,0.01z" id="svg_22"/>
     </g>
     <g id="svg_19">
      <path 
        style="fill:#F30012"
        d="m61.82,61.44l-42.79,-32.66c-2.93,-2.57 -3.01,-7.08 -0.28,-9.69c2.69,-2.57 7.19,-2.44 9.77,0.39c11.1,13.99 22.21,27.97 33.31,41.96l-0.01,0z" id="svg_20"/>
     </g>
     <g id="svg_17">
      <path 
        style="fill:#F30012"
        d="m61.82,61.44l-6.71,-52.76c-0.22,-3.85 2.97,-7.09 6.79,-7.05c3.75,0.04 6.85,3.26 6.62,7.05c-2.23,17.59 -4.47,35.17 -6.71,52.76l0.01,0z" id="svg_18"/>
     </g>
     <g id="svg_15">
      <path 
        style="fill:#F30012"
        d="m61.82,61.44l33.31,-41.96c2.62,-2.88 7.22,-2.95 9.88,-0.28c2.62,2.63 2.49,7.05 -0.4,9.58c-14.26,10.89 -28.53,21.77 -42.79,32.66z" id="svg_16"/>
     </g>
     <g id="svg_13">
      <path 
        style="fill:#F30012"
        d="m61.82,61.44l53.81,-6.57c3.93,-0.22 7.23,2.91 7.19,6.65c-0.04,3.68 -3.32,6.71 -7.19,6.5c-17.94,-2.19 -35.87,-4.38 -53.81,-6.57l0,-0.01z" id="svg_14"/>
     </g>
     <g id="svg_11">
      <path 
        style="fill:#F30012"
        d="m61.82,61.44l42.79,32.66c2.93,2.57 3.01,7.08 0.28,9.69c-2.69,2.57 -7.19,2.44 -9.77,-0.39c-11.1,-13.99 -22.21,-27.97 -33.31,-41.96l0.01,0z" id="svg_12"/>
     </g>
     <g id="svg_9">
      <path 
        style="fill:#F30012"
        d="m61.82,61.44l6.71,52.76c0.22,3.85 -2.97,7.09 -6.79,7.05c-3.75,-0.04 -6.85,-3.26 -6.62,-7.05c2.23,-17.59 4.47,-35.17 6.71,-52.76l-0.01,0z" id="svg_10"/>
     </g>
    </g>
   </g>
  </symbol>
 </defs>
 <g class="layer">
  <title>Layer 1</title>
  <path 
    style="fill:#F30012"
    d="m109.66,123.28c8.12,0 14.74,-6.59 14.74,-14.74l0,-94.05c0,-8.14 -6.62,-14.74 -14.74,-14.74l-94.02,0c-8.16,0 -14.77,6.6 -14.77,14.74l0,94.05c0,8.16 6.61,14.74 14.77,14.74l94.02,0z" fill="#231F20" id="svg_2"/>
  <path 
    d="m15.64,2.25c-6.76,0 -12.26,5.49 -12.26,12.25l0,94.04c0,6.74 5.5,12.24 12.26,12.24l94.02,0c6.76,0 12.25,-5.5 12.25,-12.24l0,-94.04c0,-6.76 -5.49,-12.25 -12.25,-12.25l-94.02,0z" fill="#FFFFFF" id="svg_3" transform="matrix(1 0 0 1 0 0)"/>
  <use id="svg_26" transform="matrix(0.945455 0 0 0.957472 -7.45111 -6.07844)" x="12.16" xlink:href="#svg_25" y="8.92"/>
 </g>
</svg>