<?xml version="1.0" encoding="utf-8"?>

<!DOCTYPE svg PUBLIC "-//W3C//DTD SVG 1.1//EN" "http://www.w3.org/Graphics/SVG/1.1/DTD/svg11.dtd">
<svg version="1.1" id="Layer_1" xmlns="http://www.w3.org/2000/svg" xmlns:xlink="http://www.w3.org/1999/xlink" x="0px" y="0px"
	 viewBox="0 0 1642 1642" enable-background="new 0 0 1642 1642" xml:space="preserve">
<g>
	<g>
		<path d="M821.001,821.001l-436.833,561.201c-34.359,38.489-94.653,39.518-129.597,3.731
			c-34.402-35.231-32.665-94.292,5.229-128.099C446.866,1112.222,633.934,966.612,821.001,821.001z"/>
	</g>
	<g>
		<path d="M821,821.001l-705.717,87.942c-51.511,2.921-94.873-38.986-94.277-89.001c0.586-49.238,43.577-89.772,94.277-86.882
			C350.522,762.373,585.761,791.687,821,821.001z"/>
	</g>
	<g>
		<path d="M820.999,821.001L259.798,384.168c-38.489-34.359-39.518-94.653-3.731-129.597c35.231-34.402,94.292-32.665,128.099,5.229
			C529.778,446.866,675.388,633.934,820.999,821.001z"/>
	</g>
	<g>
		<path d="M820.999,821l-87.942-705.717c-2.921-51.511,38.986-94.873,89.001-94.277c49.238,0.586,89.772,43.577,86.882,94.277
			C879.627,350.522,850.313,585.761,820.999,821z"/>
	</g>
	<g>
		<path d="M820.999,820.999l436.833-561.201c34.359-38.489,94.653-39.518,129.598-3.731c34.402,35.231,32.665,94.292-5.229,128.099
			C1195.134,529.778,1008.066,675.388,820.999,820.999z"/>
	</g>
	<g>
		<path d="M821,820.999l705.717-87.942c51.511-2.921,94.873,38.986,94.277,89.001c-0.586,49.238-43.577,89.772-94.277,86.882
			C1291.478,879.627,1056.239,850.313,821,820.999z"/>
	</g>
	<g>
		<path d="M821.001,820.999l561.201,436.833c38.489,34.359,39.518,94.653,3.731,129.598c-35.231,34.402-94.292,32.665-128.099-5.229
			C1112.222,1195.134,966.612,1008.066,821.001,820.999z"/>
	</g>
	<g>
		<path d="M821.001,821l87.942,705.717c2.921,51.511-38.986,94.873-89.001,94.277c-49.238-0.586-89.772-43.577-86.882-94.277
			C762.373,1291.478,791.687,1056.239,821.001,821z"/>
	</g>
</g>
</svg>
