<svg xmlns="http://www.w3.org/2000/svg" xmlns:xlink="http://www.w3.org/1999/xlink" width="1080" zoomAndPan="magnify" viewBox="0 0 810 809.999993" height="1080" preserveAspectRatio="xMidYMid meet" version="1.0"><defs><clipPath id="8222c14535"><path d="M 172 77 L 613 77 L 613 770.414062 L 172 770.414062 Z M 172 77 " clip-rule="nonzero"/></clipPath></defs><g clip-path="url(#8222c14535)"><path fill="#1f77b4" d="M 214.742188 134.902344 L 214.742188 128.214844 C 214.742188 127.257812 214.742188 127.257812 214.742188 126.300781 C 221.429688 121.523438 226.207031 113.878906 226.207031 104.324219 C 226.207031 89.992188 214.742188 77.570312 199.453125 77.570312 C 185.117188 77.570312 172.695312 89.035156 172.695312 104.324219 C 172.695312 113.878906 177.476562 121.523438 184.164062 126.300781 C 184.164062 127.257812 184.164062 127.257812 184.164062 128.214844 L 184.164062 755.042969 C 184.164062 763.644531 190.851562 770.332031 199.453125 770.332031 C 208.050781 770.332031 214.742188 763.644531 214.742188 755.042969 L 214.742188 385.25 C 347.558594 460.738281 479.421875 309.765625 612.242188 385.25 C 612.242188 302.121094 612.242188 218.035156 612.242188 134.902344 C 479.421875 59.414062 346.605469 209.433594 214.742188 134.902344 Z M 214.742188 134.902344 " fill-opacity="1" fill-rule="nonzero"/></g></svg>