<svg xmlns="http://www.w3.org/2000/svg" xmlns:xlink="http://www.w3.org/1999/xlink" width="1080" zoomAndPan="magnify" viewBox="0 0 755 755" height="1080" preserveAspectRatio="xMidYMid meet" version="1.0"><defs><clipPath id="636460083e"><path d="M 246.53125 81 L 563.78125 81 L 563.78125 741 L 246.53125 741 Z M 246.53125 81 " clip-rule="nonzero"/></clipPath></defs><rect x="-81" width="972" fill="" y="-80.999999" height="971.999992" fill-opacity="0"/><rect x="-81" width="972" fill="" y="-80.999999" height="971.999992" fill-opacity="0"/><g clip-path="url(#636460083e)"><path stroke="#1f77b4" stroke-width="70" fill="#1f77b4" d="M 404.972656 81.007812 C 317.601562 81.007812 246.53125 152.078125 246.53125 239.449219 C 246.53125 321.230469 308.820312 388.734375 388.460938 397.011719 L 388.460938 741.378906 L 421.484375 741.378906 L 421.484375 397.011719 C 501.125 388.734375 563.414062 321.230469 563.414062 239.449219 C 563.414062 152.078125 492.34375 81.007812 404.972656 81.007812 Z M 404.972656 364.558594 C 335.96875 364.558594 279.839844 308.429688 279.839844 239.449219 C 279.839844 170.449219 335.96875 114.320312 404.972656 114.320312 C 473.972656 114.320312 530.105469 170.449219 530.105469 239.449219 C 530.105469 308.429688 473.972656 364.558594 404.972656 364.558594 Z M 404.972656 364.558594 " fill-opacity="1" fill-rule="nonzero"/></g></svg>