<?xml version="1.0"?>
<svg width="123.547" height="123.539" xmlns="http://www.w3.org/2000/svg" xmlns:svg="http://www.w3.org/2000/svg" xmlns:xlink="http://www.w3.org/1999/xlink" enable-background="new -0.258 -0.548 123.547 123.539" version="1.1" xml:space="preserve">
 <metadata>image/svg+xmlOpenclipartNPS map pictographs part 12008-01-18T03:02:19First set of 4 sets of map pictographs for U.S. national park maps.  PD US Government - National Park Service, U.S. Dept. of the Interior
\n
\nrest of set: 
\nhttp://openclipart.org/media/files/johnny_automatic/6754
\nhttp://openclipart.org/media/files/johnny_automatic/6757
\nhttp://openclipart.org/media/files/johnny_automatic/6765https://openclipart.org/detail/11161/nps-map-pictographs-part-1-by-johnny_automatic-11161johnny_automaticcartographyexternalsourcemapparkpictographsignsymbol</metadata>
 <defs>
  <symbol height="540.58" id="svg_20" version="1.1" width="429.49" xmlns="http://www.w3.org/2000/svg" xmlns:cc="http://creativecommons.org/ns#" xmlns:dc="http://purl.org/dc/elements/1.1/" xmlns:inkscape="http://www.inkscape.org/namespaces/inkscape" xmlns:rdf="http://www.w3.org/1999/02/22-rdf-syntax-ns#" xmlns:sodipodi="http://sodipodi.sourceforge.net/DTD/sodipodi-0.dtd" xmlns:svg="http://www.w3.org/2000/svg">

   <metadata id="svg_18">image/svg+xml</metadata>
   <g id="svg_14" transform="translate(983.22261,375.19865)">
    <path d="m-689.36,155.18c0,4.2 3.41,7.61 7.61,7.61l149.94,0c4.2,0 7.61,-3.41 7.61,-7.61l0,-149.94c0,-4.2 -3.41,-7.61 -7.61,-7.61l-149.94,0c-4.2,0 -7.61,3.41 -7.61,7.61l0,149.94z" fill="#ffffff" fill-rule="evenodd" id="svg_17"/>
    <path d="m-606.74,18.18c-34.22,0 -61.99,27.76 -61.99,61.99c0,34.23 27.77,61.98 61.99,61.98c34.21,0 61.98,-27.75 61.98,-61.98c0,-34.23 -27.77,-61.99 -61.98,-61.99z" fill="#ffffff" fill-rule="evenodd" id="svg_16"/>
    <path d="m-839.32,-227.06l0,98.86l-72.72,87.54l-0.11,83.3c-7.92,3 -15.44,6.9 -22.34,11.57c-7.15,4.85 -13.67,10.54 -19.29,16.86c-2.57,2.95 -4.96,6 -7.14,9.19c-2.27,3.39 -4.37,6.87 -6.18,10.48c-1.03,2.04 -1.85,4.2 -2.44,6.4c-0.7,2.51 -1.11,5.1 -1.22,7.73c-1.11,8.94 1.69,17.97 7.83,25.05c6.55,7.54 16.27,12.26 26.79,12.93c5.51,0.4 11.03,0.36 16.49,-0.1c5.09,-0.43 10.13,-1.19 15.06,-2.33c9.37,-1.77 18.43,-4.61 26.98,-8.49c7.95,-3.6 15.4,-8.05 22.18,-13.27c3.26,-2.47 6.5,-4.95 9.72,-7.48c3,-2.33 5.99,-4.7 8.99,-7.11c3.86,-3.41 7.67,-6.86 11.37,-10.43c3.79,-3.59 7.48,-7.29 11.07,-11.03c6.07,-6.69 11.85,-13.59 17.3,-20.7c5.27,-6.91 10.24,-13.99 14.88,-21.26l12.49,26.11c-2.09,1.26 -4.14,2.5 -6.19,3.84c-1.93,1.25 -3.82,2.56 -5.71,3.88c-3.86,2.45 -7.56,5.15 -11.03,8.06c-3.23,2.73 -6.25,5.61 -9.1,8.7c-2.65,2.69 -5.03,5.6 -7.12,8.69c-2.45,3.56 -4.49,7.34 -6.11,11.25c-0.99,2.35 -1.77,4.72 -2.45,7.12c-0.66,2.46 -1.13,4.9 -1.49,7.37c-0.51,9 2.52,17.84 8.63,24.92c6.85,7.98 16.98,13.05 28.05,14.02c5.31,0.29 10.63,0.21 15.94,-0.21c5.13,-0.43 10.16,-1.19 15.16,-2.31c9.22,-2.4 18.22,-5.68 26.71,-9.74c8.16,-3.89 15.88,-8.48 23.08,-13.7c3.46,-2.12 6.82,-4.41 10.01,-6.87c2.87,-2.22 5.62,-4.6 8.27,-7.07c3.9,-3.64 7.73,-7.37 11.37,-11.18c3.63,-3.77 7.18,-7.67 10.57,-11.65c6.37,-6.44 12.33,-13.23 17.75,-20.35c5.36,-7.05 10.21,-14.38 14.54,-21.97c5.24,-7.12 10.99,-13.95 17.13,-20.45c7.06,-7.43 14.69,-14.45 22.8,-20.92l34.47,-23.76l-8.86,-10.25l-25.21,17.9c-9.14,5.85 -18.63,11.26 -28.44,16.11c-8.82,4.39 -17.88,8.34 -27.18,11.87c-7.51,2.29 -15.11,4.38 -22.75,6.28c-7.25,1.8 -14.58,3.42 -21.95,4.82c-5.43,0.36 -10.83,1.12 -16.11,2.26c-4.69,1.01 -9.29,2.35 -13.78,3.96l-23.15,-47.2l33.45,-24.15l-8.05,-9.64l-24.62,17.22c-0.55,0.46 -1.14,0.89 -1.77,1.32c-0.63,0.43 -1.26,0.83 -1.93,1.19l0.04,-223.96l37.74,34.58l-21.91,47.42c-4.92,10.71 0.63,23 12.37,27.46c11.52,4.35 24.77,-0.5 29.77,-10.93l33.68,-73.26l-81.33,-74.99c-2.6,-2.22 -5.71,-3.95 -9.06,-5.07c-4.34,-1.44 -9.02,-1.15 -13.56,-1.15l-67.58,-0.1c-3.82,0 -7.67,0.32 -11.33,1.47c-3.83,1.19 -7.39,3.09 -10.41,5.54l-63.81,76.39l-49.19,-0.04c-12.65,-0.25 -23.08,8.92 -23.36,20.46c-0.28,11.75 10.13,21.38 23.01,21.31l70.86,0l49.43,-58.31zm42.97,237.32c-7.25,2 -14.5,3.92 -21.82,5.64c-7.56,1.8 -15.2,3.44 -22.85,4.92c-2.79,0.4 -5.59,0.87 -8.34,1.4c-2.36,0.47 -4.74,1.01 -7.1,1.62l0,-48.82l56.91,-67.91l0,96.64l3.2,6.51zm168.39,27.25l-7.64,8.77c-1.97,2.02 -3.77,4.17 -5.4,6.44c-1.76,2.48 -3.31,5.06 -4.64,7.75c-5.16,7.31 -10.6,14.46 -16.3,21.39c-5.75,6.99 -11.79,13.75 -18.08,20.32c-3.58,4.42 -7.52,8.56 -11.86,12.37c-4.69,4.13 -9.73,7.88 -15.12,11.17l-71.42,-39.35c2.37,-1.62 4.78,-3.2 7.24,-4.68c2.14,-1.25 4.3,-2.47 6.51,-3.63l7.96,15.68c5.48,10.85 22.52,18.47 36.51,12.82c13.86,-5.59 20.2,-20.37 14.17,-33.1l-7.52,-15.65c3.55,-0.86 7.13,-1.68 10.72,-2.4c3.46,-0.72 6.97,-1.35 10.48,-1.94c2.72,-0.47 5.39,-0.97 8.05,-1.51c2.62,-0.46 5.18,-0.96 7.75,-1.47c6.53,-1.15 12.99,-2.59 19.36,-4.24c6.43,-1.66 12.73,-3.59 18.96,-5.75l10.27,-2.99zm-160.09,58.3l69.55,38.57c-7.05,4.36 -14.58,8.01 -22.49,10.9c-8.31,3.02 -16.94,5.21 -25.76,6.47c-3.23,0.24 -6.46,0.29 -9.69,0.11c-3.31,-0.19 -6.61,-0.63 -9.84,-1.26c-6.38,-1.8 -11.83,-5.65 -15.25,-10.87c-3.11,-4.7 -4.41,-10.27 -3.69,-15.74c0.3,-1.61 0.7,-3.23 1.25,-4.82c0.6,-1.69 1.3,-3.29 2.14,-4.89c1.72,-3.62 3.53,-7.24 6.08,-10.46c1.16,-1.43 2.49,-2.76 3.8,-4.09c1.26,-1.33 2.55,-2.63 3.9,-3.92zm-83.79,18.18c-7.17,4.38 -14.85,8.01 -22.88,10.81c-8.05,2.81 -16.43,4.79 -24.94,5.86c-3.23,0.29 -6.49,0.4 -9.72,0.29c-3.71,-0.14 -7.37,-0.54 -10.99,-1.18c-5.75,-1.69 -10.68,-5.22 -13.87,-9.89c-3.46,-5.07 -4.65,-11.19 -3.35,-17.04c0.29,-1.66 0.71,-3.31 1.31,-4.89c0.58,-1.55 1.29,-3.02 2.17,-4.46c1.44,-3.41 3.39,-6.68 5.74,-9.66c2.13,-2.72 4.57,-5.18 7.29,-7.41l69.24,37.57zm121.35,-452.78c0,19.77 -17.57,35.81 -39.23,35.81c-21.65,0 -39.23,-16.04 -39.23,-35.81c0,-19.77 17.58,-35.81 39.23,-35.81c21.66,0 39.23,16.04 39.23,35.81zm-37.56,366.46c-1.86,2.44 -3.7,4.85 -5.56,7.26c-1.73,2.36 -3.46,4.71 -5.2,7.01c-4.88,7.2 -10.12,14.19 -15.68,20.96c-5.72,6.97 -11.77,13.73 -18.16,20.2c-4.24,3.89 -8.57,7.7 -13.03,11.4c-4.65,3.85 -9.37,7.57 -14.21,11.22l-70.43,-38.8c2.91,-2.05 5.87,-4.02 8.94,-5.85c2.92,-1.77 5.91,-3.42 8.93,-4.97l0.08,7.33c0.12,12.16 13.67,25.24 27.77,25.21c15.13,0.04 27.41,-11.22 27.54,-25.01l0.15,-26.01c1.93,-0.36 3.86,-0.72 5.75,-1.11c1.9,-0.32 3.79,-0.65 5.63,-1.01c2.96,-0.39 5.88,-0.89 8.79,-1.47c2.65,-0.5 5.28,-1.12 7.91,-1.76c6.39,-1.36 12.76,-2.88 19.06,-4.58c6.3,-1.67 12.57,-3.52 18.76,-5.49l2.96,5.47z" fill="#000000" fill-rule="evenodd" id="svg_15"/>
   </g>
  </symbol>
 </defs>
 <g class="layer">
  <title>Layer 1</title>
  <path d="m110.09,123.58c8.15,0 14.76,-6.62 14.76,-14.77l0,-94.02c0,-8.16 -6.61,-14.77 -14.76,-14.77l-94.03,0c-8.15,0 -14.76,6.61 -14.76,14.77l0,94.02c0,8.15 6.61,14.77 14.76,14.77l94.03,0z" fill="#231F20" id="svg_2"/>
  <path d="m16.05,2.52c-6.75,0 -12.25,5.5 -12.25,12.27l0,94.02c0,6.77 5.5,12.27 12.25,12.27l94.04,0c6.75,0 12.25,-5.5 12.25,-12.27l0,-94.02c0,-6.77 -5.5,-12.27 -12.25,-12.27l-94.04,0z" fill="#FFFFFF" id="svg_3" transform="matrix(1 0 0 1 0 0)"/>
  <use id="svg_21" transform="matrix(0.212349 0 0 0.178716 16.7063 10.2847)" x="28.26" xlink:href="#svg_20" y="16.79"/>
 </g>
</svg>