<svg xmlns="http://www.w3.org/2000/svg" xmlns:xlink="http://www.w3.org/1999/xlink" width="1080" zoomAndPan="magnify" viewBox="0 0 810 809.999993" height="1080" preserveAspectRatio="xMidYMid meet" version="1.0"><defs><clipPath id="6523220127"><path d="M 169.5625 35.027344 L 640.5625 35.027344 L 640.5625 775.277344 L 169.5625 775.277344 Z M 169.5625 35.027344 " clip-rule="nonzero"/></clipPath></defs><g clip-path="url(#6523220127)"><path fill="#1f77b4" d="M 269.808594 262.851562 C 269.808594 188.308594 330.445312 127.675781 404.992188 127.675781 C 479.511719 127.675781 540.148438 188.308594 540.148438 262.851562 C 540.148438 337.34375 479.511719 397.980469 404.992188 397.980469 C 330.445312 397.980469 269.808594 337.34375 269.808594 262.851562 Z M 640.402344 270.351562 C 640.402344 140.507812 534.816406 34.910156 404.992188 34.910156 C 275.171875 34.910156 169.542969 140.507812 169.542969 270.351562 C 169.542969 385.550781 355.710938 695.148438 404.992188 775.082031 C 454.269531 695.148438 640.402344 385.550781 640.402344 270.351562 " fill-opacity="1" fill-rule="nonzero"/></g><path fill="#1f77b4" d="M 512.132812 262.851562 C 512.132812 203.757812 464.0625 155.6875 404.992188 155.6875 C 345.902344 155.6875 297.828125 203.757812 297.828125 262.851562 C 297.828125 321.914062 345.902344 369.992188 404.992188 369.992188 C 464.0625 369.992188 512.132812 321.914062 512.132812 262.851562 " fill-opacity="1" fill-rule="nonzero"/></svg>